<?xml version="1.0" encoding="UTF-8" standalone="no"?>
<!DOCTYPE svg PUBLIC "-//W3C//DTD SVG 1.0//EN" "http://www.w3.org/TR/2001/PR-SVG-20010719/DTD/svg10.dtd">
<svg width="30cm" height="8cm" viewBox="163 231 586 143" xmlns="http://www.w3.org/2000/svg" xmlns:xlink="http://www.w3.org/1999/xlink">
  <g>
    <line style="fill: none; fill-opacity:0; stroke-width: 6; stroke: #000000" x1="307.826" y1="267" x2="307.826" y2="299"/>
    <polygon style="fill: #ffffff" points="307.826,283 332.174,267 332.174,299 "/>
    <polygon style="fill: none; fill-opacity:0; stroke-width: 2; stroke: #000000" points="307.826,283 332.174,267 332.174,299 "/>
    <line style="fill: none; fill-opacity:0; stroke-width: 2; stroke: #000000" x1="360" y1="283" x2="280" y2="283"/>
    <line style="fill: none; fill-opacity:0; stroke-width: 2; stroke: #000000" x1="325.217" y1="267" x2="311.304" y2="259"/>
    <polygon style="fill: #000000" points="315.757,259 311.304,259 311.304,259 311.304,262.2 "/>
    <polygon style="fill: none; fill-opacity:0; stroke-width: 2; stroke: #000000" points="315.757,259 311.304,259 311.304,259 311.304,262.2 "/>
    <line style="fill: none; fill-opacity:0; stroke-width: 2; stroke: #000000" x1="318.261" y1="270.2" x2="304.348" y2="262.2"/>
    <polygon style="fill: #000000" points="308.8,262.2 304.348,262.2 304.348,265.4 "/>
    <polygon style="fill: none; fill-opacity:0; stroke-width: 2; stroke: #000000" points="308.8,262.2 304.348,262.2 304.348,265.4 "/>
  </g>
  <g>
    <line style="fill: none; fill-opacity:0; stroke-width: 2; stroke: #000000" x1="384" y1="281.61" x2="406" y2="281.61"/>
    <rect style="fill: #ffffff" x="406" y="268" width="44" height="27.2198"/>
    <rect style="fill: none; fill-opacity:0; stroke-width: 2; stroke: #000000" x="406" y="268" width="44" height="27.2198"/>
    <line style="fill: none; fill-opacity:0; stroke-width: 2; stroke: #000000" x1="450" y1="281.61" x2="472" y2="281.61"/>
  </g>
  <line style="fill: none; fill-opacity:0; stroke-width: 2; stroke: #000000" x1="360" y1="283" x2="384" y2="281.61"/>
  <g>
    <rect style="fill: #ffffff" x="538" y="233" width="210" height="140"/>
    <rect style="fill: none; fill-opacity:0; stroke-width: 2; stroke: #000000" x="538" y="233" width="210" height="140"/>
  </g>
  <text font-size="12.7998" style="fill: #000000;text-anchor:start;font-family:sans-serif;font-style:normal;font-weight:normal" x="549.525" y="257.5">
    <tspan x="549.525" y="257.5">Pin1</tspan>
  </text>
  <line style="fill: none; fill-opacity:0; stroke-width: 2; stroke: #000000" x1="472" y1="281.61" x2="532" y2="282"/>
  <text font-size="12.7998" style="fill: #000000;text-anchor:start;font-family:sans-serif;font-style:normal;font-weight:normal" x="547.5" y="288">
    <tspan x="547.5" y="288">Pin 2</tspan>
  </text>
  <text font-size="12.7998" style="fill: #000000;text-anchor:start;font-family:sans-serif;font-style:normal;font-weight:normal" x="547.5" y="322">
    <tspan x="547.5" y="322">Pin 3</tspan>
  </text>
  <text font-size="12.7998" style="fill: #000000;text-anchor:start;font-family:sans-serif;font-style:normal;font-weight:normal" x="547.5" y="355">
    <tspan x="547.5" y="355">Pin 4</tspan>
  </text>
  <line style="fill: none; fill-opacity:0; stroke-width: 2; stroke: #000000" x1="531" y1="252" x2="217" y2="251"/>
  <line style="fill: none; fill-opacity:0; stroke-width: 2; stroke: #000000" x1="531" y1="349" x2="222" y2="351"/>
  <text font-size="12.7998" style="fill: #000000;text-anchor:start;font-family:sans-serif;font-style:normal;font-weight:normal" x="163" y="255">
    <tspan x="163" y="255">Masse</tspan>
  </text>
  <text font-size="12.7998" style="fill: #000000;text-anchor:start;font-family:sans-serif;font-style:normal;font-weight:normal" x="200" y="364">
    <tspan x="200" y="364">V+</tspan>
  </text>
  <line style="fill: none; fill-opacity:0; stroke-width: 2; stroke: #000000" x1="260" y1="252" x2="260" y2="283"/>
  <line style="fill: none; fill-opacity:0; stroke-width: 2; stroke: #000000" x1="261" y1="283" x2="280" y2="283"/>
  <text font-size="12.7998" style="fill: #000000;text-anchor:start;font-family:sans-serif;font-style:normal;font-weight:normal" x="390" y="310">
    <tspan x="390" y="310">390-470 Ohm</tspan>
  </text>
</svg>
